# xmcd
#
# Track frame offsets:
#	150
#	14144
#	31217
#	45648
#	58573
#	72309
#	87319
#	108593
#	125685
#	141135
#	156650
#	172189
#	188939
#	204026
#	217503
#	233438
#	247595
#	264053
#	277631
#
# Disc length: 3932 seconds
#
# Revision: 1
# Processed by: cddbd v1.5.2PL0 Copyright (c) Steve Scherf et al.
# Submitted via: audiograbber 1.83.01
#
DISCID=fd0f5a13
DTITLE=Various Artist - Hott Country 149
DYEAR=2008
DGENRE=Country
TTITLE0=Jaydee Bixby - Old Fashioned Girl
TTITLE1=Doc Walker - That`s All
TTITLE2=Lee Ann Womack - Last Call
TTITLE3=Geirge Strait - Troubadour
TTITLE4=Chris Young - Voices
TTITLE5=Jewel - I Do
TTITLE6=Alan Jackson - Good Time ( Summer Of Fun Too Hot To Fish Remix )
TTITLE7=Dierks Bently - Sweet And Wild ( Radio Edit )
TTITLE8=Ashton Shepherd - Sounds So Good
TTITLE9=Rick Tippe - Radio On
TTITLE10=Laura Bryna - Life Is Good
TTITLE11=Julian Austin - Back To Me
TTITLE12=Tara Oram - Fly Girl
TTITLE13=Lady Antebellum - Lookin` For A Good Time
TTITLE14=Phil Vassar - I Would
TTITLE15=Gretchen Wilson - Don`t Do Me No Good
TTITLE16=Sara Evans - Love You With All My Heart ( Radio Edit )
TTITLE17=Darius Rucker - Don`t Think I Don`t Think About It
TTITLE18=Aaron Lines  - Somebody`s Son ( 2007 )
EXTD=July 2008
EXTT0=
EXTT1=
EXTT2=
EXTT3=
EXTT4=
EXTT5=
EXTT6=
EXTT7=
EXTT8=
EXTT9=
EXTT10=
EXTT11=
EXTT12=
EXTT13=
EXTT14=
EXTT15=
EXTT16=
EXTT17=
EXTT18=July 2008
PLAYORDER=
